<?xml version="1.0" encoding="UTF-8"?>
<svg width="2000px" height="1000px" viewBox="0 0 2000 1000" version="1.1" xmlns="http://www.w3.org/2000/svg" xmlns:xlink="http://www.w3.org/1999/xlink">
    <title>icon_action_account</title>
    <g id="icon_action_account" stroke="none" stroke-width="1" fill="none" fill-rule="evenodd">
        <rect id="Rectangle" x="0" y="0" width="2000" height="1000"></rect>
        <g id="Action/Account" transform="translate(600.000000, 100.000000)">
            <g id="🎨-Icon-Style" transform="translate(50.000000, 137.500000)">
                <path d="M625,2.84217094e-12 C658.609434,2.84217094e-12 686.022726,26.5288339 687.442256,59.7888797 L687.5,62.5 L687.5,462.5 C687.5,496.109434 660.971166,523.522726 627.71112,524.942256 L625,525 L112.5,525 C78.8905662,525 51.4772736,498.471166 50.0577439,465.21112 L50,462.5 L50,425 L37.5,425 C17.528989,425 1.20423901,409.3885 0.0636586677,389.70341 L3.4947996e-13,387.5 C3.50702832e-13,367.528989 15.6114996,351.204239 35.2965901,350.063659 L37.5,350 L50,350 L50,175 L37.5,175 C17.528989,175 1.20423901,159.3885 0.0636586677,139.70341 L3.64788045e-13,137.5 C3.66010917e-13,117.528989 15.6114996,101.204239 35.2965901,100.063659 L37.5,100 L50,100 L50,62.5 C50,28.8905662 76.5288339,1.47727357 109.78888,0.0577439231 L112.5,2.84217094e-12 L625,2.84217094e-12 Z M625,25 L112.5,25 C92.528989,25 76.204239,40.6114996 75.0636587,60.2965901 L75,62.5 L75,100 L87.5,100 C108.210678,100 125,116.789322 125,137.5 C125,157.471011 109.3885,173.795761 89.7034099,174.936341 L87.5,175 L75,175 L75,350 L87.5,350 C107.471011,350 123.795761,365.6115 124.936341,385.29659 L125,387.5 C125,407.471011 109.3885,423.795761 89.7034099,424.936341 L87.5,425 L75,425 L75,462.5 C75,482.471011 90.6114996,498.795761 110.29659,499.936341 L112.5,500 L625,500 C644.971011,500 661.295761,484.3885 662.436341,464.70341 L662.5,462.5 L662.5,62.5 C662.5,42.528989 646.8885,26.204239 627.20341,25.0636587 L625,25 Z M550,387.5 C556.903559,387.5 562.5,393.096441 562.5,400 C562.5,406.903559 556.903559,412.5 550,412.5 L412.5,412.5 C405.596441,412.5 400,406.903559 400,400 C400,393.096441 405.596441,387.5 412.5,387.5 L550,387.5 Z M87.5,375 L37.5,375 C30.5964406,375 25,380.596441 25,387.5 C25,393.910448 29.8255024,399.19384 36.0422359,399.915903 L37.5,400 L87.5,400 C94.4035594,400 100,394.403559 100,387.5 C100,381.089552 95.1744976,375.80616 88.9577641,375.084097 L87.5,375 Z M462.5,337.5 C469.403559,337.5 475,343.096441 475,350 C475,356.903559 469.403559,362.5 462.5,362.5 L412.5,362.5 C405.596441,362.5 400,356.903559 400,350 C400,343.096441 405.596441,337.5 412.5,337.5 L462.5,337.5 Z M587.5,337.5 C594.403559,337.5 600,343.096441 600,350 C600,356.903559 594.403559,362.5 587.5,362.5 L500,362.5 C493.096441,362.5 487.5,356.903559 487.5,350 C487.5,343.096441 493.096441,337.5 500,337.5 L587.5,337.5 Z M300.105598,250 C320.636352,250 337.501438,266.863832 337.501438,287.638881 L337.501438,312.56944 C337.501438,319.656484 331.88016,325.03472 325.036158,325.03472 C318.192155,325.03472 312.570878,319.656484 312.570878,312.56944 L312.570878,287.638881 C312.570878,280.550584 306.949601,274.929307 300.105598,274.929307 L199.897277,274.929307 C193.053274,274.929307 187.431997,280.550584 187.431997,287.638881 L187.431997,312.56944 C187.431997,319.656484 181.81072,325.03472 174.966717,325.03472 C168.122715,325.03472 162.501438,319.656484 162.501438,312.56944 L162.501438,287.638881 C162.501438,266.863832 179.366523,250 199.897277,250 L300.105598,250 Z M587.5,287.5 C594.403559,287.5 600,293.096441 600,300 C600,306.903559 594.403559,312.5 587.5,312.5 L412.5,312.5 C405.596441,312.5 400,306.903559 400,300 C400,293.096441 405.596441,287.5 412.5,287.5 L587.5,287.5 Z M250.001438,125 C277.620489,125 300.105598,147.242068 300.105598,174.861119 C300.105598,202.478917 277.620489,224.96528 250.001438,224.96528 C222.382386,224.96528 200.141571,202.478917 200.141571,174.861119 C200.141571,147.242068 222.382386,125 250.001438,125 Z M250.070878,150 C236.346004,150 225.070878,161.274153 225.070878,175.000628 C225.070878,188.970828 236.346004,200 250.070878,200 C264.040727,200 275.070878,188.970828 275.070878,175.000628 C275.070878,161.274153 264.040727,150 250.070878,150 Z M87.5,125 L37.5,125 C30.5964406,125 25,130.596441 25,137.5 C25,143.910448 29.8255024,149.19384 36.0422359,149.915903 L37.5,150 L87.5,150 C94.4035594,150 100,144.403559 100,137.5 C100,131.089552 95.1744976,125.80616 88.9577641,125.084097 L87.5,125 Z" id="Base" fill="#282D37" fill-rule="nonzero"></path>
                <path d="M587.5,137.5 C594.403559,137.5 600,143.096441 600,150 C600,156.903559 594.403559,162.5 587.5,162.5 L412.5,162.5 C405.596441,162.5 400,156.903559 400,150 C400,143.096441 405.596441,137.5 412.5,137.5 L587.5,137.5 Z M537.5,187.5 C544.403559,187.5 550,193.096441 550,200 C550,206.903559 544.403559,212.5 537.5,212.5 L412.5,212.5 C405.596441,212.5 400,206.903559 400,200 C400,193.096441 405.596441,187.5 412.5,187.5 L537.5,187.5 Z" id="Pulse" fill="#EC0016"></path>
            </g>
        </g>
    </g>
</svg>