<?xml version="1.0" encoding="UTF-8"?>
<svg width="2000px" height="1000px" viewBox="0 0 2000 1000" version="1.1" xmlns="http://www.w3.org/2000/svg" xmlns:xlink="http://www.w3.org/1999/xlink">
    <title>icon_action_savings</title>
    <g id="icon_action_savings" stroke="none" stroke-width="1" fill="none" fill-rule="evenodd">
        <rect id="Rectangle" x="0" y="0" width="2000" height="1000"></rect>
        <g id="Action/Savings" transform="translate(600.000000, 100.000000)">
            <g id="🎨-Icon-Style" transform="translate(100.000000, 100.000000)">
                <path d="M119.302762,183.823927 C121.818351,175.648265 131.50119,172.483623 138.311374,177.181547 L139.481308,178.092791 L183.975,217.025 L192.904254,214.078558 C230.252685,202.16846 269.052011,195.420177 308.202785,194.021405 L316.597215,193.803617 L325,193.75 C474.209407,193.75 597.297912,271.004044 599.956121,371.672837 L600,375 L600,378.65825 C600,426.358536 575.710564,469.213079 531.58089,501.967436 L527.514569,504.917135 L522.8625,508.1125 L493.021774,591.704205 C491.60037,595.684135 488.300186,598.605486 484.332241,599.614829 L482.815326,599.90204 L481.25,600 L425,600 C418.589552,600 413.30616,595.174498 412.584097,588.957764 L412.5,587.5 L412.5,553.3125 L411.207929,553.60313 C388.52496,558.450164 365.414493,561.328894 341.92922,562.200482 L333.104776,562.433167 L324.245812,562.477227 C306.752092,561.419817 289.364455,559.14128 272.209307,555.662686 L263.651692,553.823481 L262.5,553.5375 L262.5,587.5 C262.5,593.417337 258.388329,598.374341 252.866135,599.669866 L251.457764,599.915903 L250,600 L193.75,600 C188.731725,600 184.253587,597.00756 182.289126,592.491054 L181.777171,591.091849 L165.0125,535.225 L162.677237,534.542557 C119.848776,521.446213 83.0948873,493.581808 58.9185283,456.007197 L56.2843559,451.792538 L54.2375,448.325 L9.46830469,437.126781 C4.87751999,435.979085 1.41716516,432.375257 0.346633758,427.928298 L0.0800294973,426.416964 L0,425 L0,350 C0,345.108745 2.84535222,340.716371 7.19760765,338.679874 L8.54715292,338.141459 L40.8,327.3875 L42.7733021,323.290576 C54.1204011,300.412147 70.476264,280.381604 90.6209003,264.690048 L95.55,260.9875 L119.302762,183.823927 Z M137.525,209.6 L118.197238,272.426073 C117.36473,275.131722 115.638489,277.47467 113.301018,279.07149 C90.3254547,294.767005 72.3484415,316.73891 61.5133449,342.367534 C60.3144729,345.203267 58.1196626,347.479492 55.3711801,348.787257 L53.9528471,349.358541 L25,359 L25,415.2375 L65.5316953,425.373219 C67.9668645,425.982011 70.1386481,427.302896 71.78878,429.135186 L72.7141948,430.294324 L73.5020165,431.566566 C95.386615,472.145889 133.324972,501.6535 178.042678,512.87597 C181.840036,513.828964 184.942457,516.495889 186.473891,520.039737 L186.972829,521.408151 L203.0375,575 L237.5,575 L237.5,537.5 C237.5,530.210682 243.628061,524.690326 250.539541,525.005623 L251.9307,525.147696 L253.333247,525.452616 C276.985241,531.996604 301.258306,536.042115 325.064272,537.500165 C357.717158,537.66806 390.25397,533.600959 421.860823,525.400596 C429.311061,523.467641 436.59071,528.646854 437.42136,536.080882 L437.5,537.5 L437.5,575 L472.4375,575 L500.728226,495.795795 C501.281482,494.246679 502.131105,492.832474 503.219032,491.626606 L504.384243,490.492902 L505.695421,489.514405 C549.517407,461.076325 573.519241,423.856112 574.933657,382.543184 L575,378.65825 L575,375 C575,315.456105 521.051825,263.067339 441.414655,236.745599 L436.964118,235.310218 L428.808409,232.859702 C397.230193,223.810243 362.079711,218.749947 324.957482,218.749928 C277.412063,218.588205 230.209342,226.797374 185.51018,243.001632 C181.765114,244.359287 177.633311,243.84139 174.363583,241.682321 L173.018692,240.657209 L137.525,209.6 Z M143.75,300 C154.105339,300 162.5,308.394661 162.5,318.75 C162.5,329.105339 154.105339,337.5 143.75,337.5 C133.394661,337.5 125,329.105339 125,318.75 C125,308.394661 133.394661,300 143.75,300 Z M402.323039,250.217757 C409.106335,251.500736 413.565222,258.039744 412.282243,264.823039 C410.999264,271.606335 404.460256,276.065222 397.676961,274.782243 C349.651387,265.69878 300.348613,265.69878 252.323039,274.782243 C245.539744,276.065222 239.000736,271.606335 237.717757,264.823039 C236.434778,258.039744 240.893665,251.500736 247.676961,250.217757 C298.772704,240.553608 351.227296,240.553608 402.323039,250.217757 Z" id="Base" fill="#282D37" fill-rule="nonzero"></path>
                <path d="M325,0 C283.578644,0 250,33.5786438 250,75 C250,116.421356 283.578644,150 325,150 C366.421356,150 400,116.421356 400,75 C400,33.5786438 366.421356,0 325,0 Z M325,25 C352.614237,25 375,47.3857625 375,75 C375,102.614237 352.614237,125 325,125 C297.385763,125 275,102.614237 275,75 C275,47.3857625 297.385763,25 325,25 Z" id="Pulse" fill="#EC0016"></path>
            </g>
        </g>
    </g>
</svg>