<?xml version="1.0" encoding="UTF-8"?>
<svg width="2000px" height="1000px" viewBox="0 0 2000 1000" version="1.1" xmlns="http://www.w3.org/2000/svg" xmlns:xlink="http://www.w3.org/1999/xlink">
    <title>icon_ticket_show-ticket</title>
    <g id="icon_ticket_show-ticket" stroke="none" stroke-width="1" fill="none" fill-rule="evenodd">
        <rect id="Rectangle" x="0" y="0" width="2000" height="1000"></rect>
        <g id="Ticket/Show-Ticket" transform="translate(600.000000, 100.000000)">
            <g id="🎨-Icon-Style" transform="translate(162.503750, 100.002181)">
                <path d="M233.988463,0.700497069 L236.481274,1.18998574 L436.366698,45.6673099 C462.138848,51.4250904 478.668671,76.3738108 474.295373,102.143078 L473.806505,104.638823 L397.382349,448.797518 C391.660308,474.603441 366.737353,491.186635 341.00474,486.807516 L338.512577,486.317897 L299.9875,477.7375 L300,537.495319 C300,560.662891 295.19156,579.338435 285.486622,594.298316 C281.729431,600.089917 273.988605,601.739133 268.197004,597.981941 C262.405402,594.22475 260.756187,586.483924 264.513378,580.692323 C270.910828,570.830839 274.469336,558.080322 274.945054,541.411896 L275,537.495319 L274.9875,472.175 L212.4875,458.2625 L212.5,487.495319 C212.5,518.394952 199.69346,541.519875 178.541745,557.224294 L175.854639,559.148723 C162.445281,568.411908 149.143282,573.085343 139.73347,574.794165 C132.941005,576.027677 126.434666,571.521255 125.201154,564.72879 C124.05575,558.421501 127.859575,552.360922 133.847251,550.539687 L137.069205,549.793092 L139.725295,549.048987 L143.122239,547.934032 C149.456697,545.708526 155.794179,542.621412 161.645361,538.579416 C177.142829,527.873765 186.528919,512.62019 187.428785,490.967597 L187.5,487.495319 L187.5,424.995319 C187.5,422.232648 188.414556,419.564269 190.076008,417.39495 L191.161165,416.156485 L266.142985,341.174703 C279.460672,327.80206 279.460672,309.688579 266.158136,296.331124 C253.371814,283.536032 236.178376,283.002903 223.030181,294.734404 L221.338835,296.334154 L121.338835,396.334154 C116.457281,401.215708 108.542719,401.215708 103.661165,396.334154 C99.7025797,392.375569 98.9541196,386.422467 101.415785,381.709664 L134.975,230.6375 L46.348794,308.824184 C33.2780533,321.924429 25.9000174,339.486429 25.0772406,358.845154 L25,362.495319 L25,587.495319 C25,594.398879 19.4035594,599.996793 12.5,599.996793 C6.08955201,599.996793 0.806160491,595.169817 0.0840966416,588.953083 L0,587.495319 L0,362.495319 C0,336.589461 9.00154311,312.424654 26.4110708,293.556923 L29.2297295,290.622346 L135.47973,196.872346 C137.700179,194.913126 140.421568,193.885138 143.166082,193.758519 L177.601773,38.6908156 C183.339536,12.8870883 208.249773,-3.67789957 233.988463,0.700497069 Z M202.492036,42.267467 L202.006526,44.1137292 L134.5875,347.725 L203.655105,278.662549 C226.750037,255.535915 260.734113,255.535915 283.857015,278.674703 C306.169568,301.07933 306.866836,333.581179 285.932288,356.633445 L283.838835,358.834154 L212.5,430.16573 L212.4875,432.65 L343.948515,461.916042 C356.427223,464.697819 368.818549,457.308503 372.491516,445.228337 L372.975995,443.381816 L449.401412,99.2174387 C452.189852,86.6694573 444.812701,74.2424547 432.767352,70.5546954 L430.926226,70.0681531 L231.048116,25.5924606 C218.555895,22.8094235 206.171212,30.1894027 202.492036,42.267467 Z" id="Base" fill="#282D37" fill-rule="nonzero"></path>
                <path d="M372.374296,125.712505 L373.814463,125.953477 L390.264463,129.690977 C396.996451,131.220509 401.213875,137.917794 399.684343,144.649783 C398.264063,150.900914 392.387914,154.983876 386.165704,154.310633 L384.725537,154.069662 L368.275537,150.332162 C361.543549,148.80263 357.326125,142.105344 358.855657,135.373356 C360.166685,129.603081 365.274429,125.68024 370.946415,125.640394 L372.374296,125.712505 Z M305.928383,110.637943 L307.368471,110.879388 L323.793471,114.616888 C330.524956,116.148634 334.740177,122.847306 333.208431,129.57879 C331.786096,135.829455 325.908605,139.910484 319.686617,139.235196 L318.246529,138.993751 L301.821529,135.256251 C295.090044,133.724505 290.874823,127.025833 292.406569,120.294348 C293.719494,114.524504 298.828528,110.603344 304.500526,110.565362 L305.928383,110.637943 Z M238.633881,95.6811154 L240.077568,95.9000152 L256.652568,99.4000152 C263.407179,100.826328 267.726617,107.458277 266.300304,114.212887 C264.975871,120.485026 259.162904,124.65745 252.931119,124.079523 L251.487432,123.860624 L234.912432,120.360624 C228.157821,118.934311 223.838383,112.302362 225.264696,105.547751 C226.48725,99.7580852 231.534352,95.7575249 237.205064,95.6308671 L238.633881,95.6811154 Z" id="Pulse" fill="#EC0016"></path>
            </g>
        </g>
    </g>
</svg>