<?xml version="1.0" encoding="UTF-8"?>
<svg width="2000px" height="1000px" viewBox="0 0 2000 1000" version="1.1" xmlns="http://www.w3.org/2000/svg" xmlns:xlink="http://www.w3.org/1999/xlink">
    <title>icon_ticket_mobileticket-brand</title>
    <g id="icon_ticket_mobileticket-brand" stroke="none" stroke-width="1" fill="none" fill-rule="evenodd">
        <rect id="Rectangle" x="0" y="0" width="2000" height="1000"></rect>
        <g id="Ticket/Mobileticket-Brand" transform="translate(600.000000, 100.000000)">
            <g id="🎨-Icon-Style" transform="translate(112.500000, 50.000000)">
                <path d="M312.5,0 C346.109434,0 373.522726,26.5288339 374.942256,59.7888797 L375,62.5 L375,132.72608 C375,139.62964 369.403559,145.22608 362.5,145.22608 C356.089552,145.22608 350.80616,140.400578 350.084097,134.183845 L350,132.72608 L350,62.5 C350,42.528989 334.3885,26.204239 314.70341,25.0636587 L312.5,25 L287.5,25 L287.5,25.428875 C287.5,34.366942 284.272152,42.9722089 278.461991,49.6862138 L276.642119,51.6421189 C270.321951,57.9622866 261.954675,61.7646958 253.098753,62.4038101 L250.428875,62.5 L124.571125,62.5 C104.828516,62.5 88.6904665,47.067044 87.5629306,27.6070852 L87.5,25 L62.5,25 C42.528989,25 26.204239,40.6114996 25.0636587,60.2965901 L25,62.5 L25,637.5 C25,657.471011 40.6114996,673.795761 60.2965901,674.936341 L62.5,675 L312.5,675 C332.471011,675 348.795761,659.3885 349.936341,639.70341 L350,637.5 L350,519.168652 C350,512.265092 355.596441,506.668652 362.5,506.668652 C368.910448,506.668652 374.19384,511.494154 374.915903,517.710888 L375,519.168652 L375,637.5 C375,671.109434 348.471166,698.522726 315.21112,699.942256 L312.5,700 L62.5,700 C28.8905662,700 1.47727357,673.471166 0.0577439231,640.21112 L0,637.5 L0,62.5 C0,28.8905662 26.5288339,1.47727357 59.7888797,0.0577439231 L62.5,0 L312.5,0 Z M262.5,625 C269.403559,625 275,630.596441 275,637.5 C275,643.910448 270.174498,649.19384 263.957764,649.915903 L262.5,650 L112.5,650 C105.596441,650 100,644.403559 100,637.5 C100,631.089552 104.825502,625.80616 111.042236,625.084097 L112.5,625 L262.5,625 Z M538.85409,162.501657 C557.787391,162.19333 573.507639,176.736244 574.904322,195.568982 L575,197.678625 L575,452.531774 C574.680003,471.439078 559.665117,486.653431 541.202355,487.470255 L539.057375,487.503151 L387.179649,487.498345 C368.246493,487.806465 352.52647,473.263601 351.129802,454.431003 L351.034125,452.321375 L351.034125,197.468224 C351.354123,178.561067 366.368789,163.346777 385.013269,162.531248 L387.180035,162.501657 L538.85409,162.501657 Z M386.772965,187.495524 C381.387173,187.410526 376.87631,191.366986 376.138339,196.399732 L376.034125,197.678625 L376.032354,452.110972 C376.123021,457.496673 380.226506,461.874047 385.606296,462.439637 L386.97625,462.5 L539.261045,462.504482 C544.646878,462.589536 549.157804,458.633064 549.895785,453.600278 L550,452.321375 L550.001771,197.889026 C549.911105,192.503283 545.807559,188.12589 540.427618,187.560349 L539.057625,187.5 L386.772965,187.495524 Z M512.51625,400 C519.419809,400 525.01625,405.596441 525.01625,412.5 C525.01625,418.910448 520.190748,424.19384 513.974014,424.915903 L512.51625,425 C505.580191,425 499.98375,419.403559 499.98375,412.5 C499.98375,406.089552 504.809252,400.80616 511.025986,400.084097 L512.51625,400 Z M462.51625,400 C469.419809,400 475.01625,405.596441 475.01625,412.5 C475.01625,418.910448 470.190748,424.19384 463.974014,424.915903 L462.51625,425 C455.580191,425 449.98375,419.403559 449.98375,412.5 C449.98375,406.089552 454.809252,400.80616 461.025986,400.084097 L462.51625,400 Z M412.51625,400 C419.419809,400 425.01625,405.596441 425.01625,412.5 C425.01625,418.910448 420.190748,424.19384 413.974014,424.915903 L412.51625,425 C405.580191,425 399.98375,419.403559 399.98375,412.5 C399.98375,406.089552 404.809252,400.80616 411.025986,400.084097 L412.51625,400 Z M150,300 C163.807119,300 175,311.192881 175,325 L175,387.5 C175,401.307119 163.807119,412.5 150,412.5 L87.5,412.5 C73.6928813,412.5 62.5,401.307119 62.5,387.5 L62.5,325 C62.5,311.192881 73.6928813,300 87.5,300 L150,300 Z M250,300 C256.903559,300 262.5,305.596441 262.5,312.5 L262.5,350 L300,350 C306.903559,350 312.5,355.596441 312.5,362.5 L312.5,400 C312.5,406.903559 306.903559,412.5 300,412.5 L262.5,412.5 C255.596441,412.5 250,406.903559 250,400 L250,362.5 L212.5,362.5 C205.596441,362.5 200,356.903559 200,350 L200,312.5 C200,305.596441 205.596441,300 212.5,300 L250,300 Z M150,318.75 L87.5,318.75 C84.4317514,318.75 81.8798954,320.96094 81.3506959,323.876555 L81.25,325 L81.25,387.5 C81.25,390.568249 83.4609395,393.120105 86.3765546,393.649304 L87.5,393.75 L150,393.75 C153.068249,393.75 155.620105,391.53906 156.149304,388.623445 L156.25,387.5 L156.25,325 C156.25,321.931751 154.03906,319.379895 151.123445,318.850696 L150,318.75 Z M293.75,368.75 L268.75,368.75 L268.75,393.75 L293.75,393.75 L293.75,368.75 Z M131.940875,336.988875 C135.392655,336.988875 138.190875,339.787095 138.190875,343.238875 L138.190875,368.238875 C138.190875,371.690655 135.392655,374.488875 131.940875,374.488875 L106.940875,374.488875 C103.489095,374.488875 100.690875,371.690655 100.690875,368.238875 L100.690875,343.238875 C100.690875,339.787095 103.489095,336.988875 106.940875,336.988875 L131.940875,336.988875 Z M243.75,318.75 L218.75,318.75 L218.75,343.75 L243.75,343.75 L243.75,318.75 Z M150,162.5 C163.807119,162.5 175,173.692881 175,187.5 L175,250 C175,263.807119 163.807119,275 150,275 L87.5,275 C73.6928813,275 62.5,263.807119 62.5,250 L62.5,187.5 C62.5,173.692881 73.6928813,162.5 87.5,162.5 L150,162.5 Z M287.5,162.5 C301.307119,162.5 312.5,173.692881 312.5,187.5 L312.5,250 C312.5,263.807119 301.307119,275 287.5,275 L225,275 C211.192881,275 200,263.807119 200,250 L200,187.5 C200,173.692881 211.192881,162.5 225,162.5 L287.5,162.5 Z M150,181.25 L87.5,181.25 C84.4317514,181.25 81.8798954,183.46094 81.3506959,186.376555 L81.25,187.5 L81.25,250 C81.25,253.068249 83.4609395,255.620105 86.3765546,256.149304 L87.5,256.25 L150,256.25 C153.068249,256.25 155.620105,254.03906 156.149304,251.123445 L156.25,250 L156.25,187.5 C156.25,184.431751 154.03906,181.879895 151.123445,181.350696 L150,181.25 Z M287.5,181.25 L225,181.25 C221.931751,181.25 219.379895,183.46094 218.850696,186.376555 L218.75,187.5 L218.75,250 C218.75,253.068249 220.96094,255.620105 223.876555,256.149304 L225,256.25 L287.5,256.25 C290.568249,256.25 293.120105,254.03906 293.649304,251.123445 L293.75,250 L293.75,187.5 C293.75,184.431751 291.53906,181.879895 288.623445,181.350696 L287.5,181.25 Z M131.940875,200 C135.392655,200 138.190875,202.79822 138.190875,206.25 L138.190875,231.25 C138.190875,234.70178 135.392655,237.5 131.940875,237.5 L106.940875,237.5 C103.489095,237.5 100.690875,234.70178 100.690875,231.25 L100.690875,206.25 C100.690875,202.79822 103.489095,200 106.940875,200 L131.940875,200 Z M267.988375,200 C271.440155,200 274.238375,202.79822 274.238375,206.25 L274.238375,231.25 C274.238375,234.70178 271.440155,237.5 267.988375,237.5 L242.988375,237.5 C239.536595,237.5 236.738375,234.70178 236.738375,231.25 L236.738375,206.25 C236.738375,202.79822 239.536595,200 242.988375,200 L267.988375,200 Z M262.5,25 L112.5,25 L112.581211,26.8366232 C113.171226,31.9164549 116.914993,36.0343737 121.803327,37.181193 L123.163377,37.4187887 L124.571125,37.5 L250.428875,37.5 C253.630336,37.5 256.700674,36.2282244 258.964449,33.9644493 C260.850929,32.0779701 262.048519,29.6313778 262.395314,27.0155517 L262.5,25.428875 L262.5,25 Z" id="Base" fill="#282D37" fill-rule="nonzero"></path>
                <path d="M462.5,225 C469.403559,225 475,230.596441 475,237.5 C475,243.910448 470.174498,249.19384 463.957764,249.915903 L462.5,250 L412.5,250 C405.596441,250 400,244.403559 400,237.5 C400,231.089552 404.825502,225.80616 411.042236,225.084097 L412.5,225 L462.5,225 Z" id="Pulse" fill="#EC0016"></path>
            </g>
        </g>
    </g>
</svg>