<?xml version="1.0" encoding="UTF-8"?>
<svg width="2000px" height="1000px" viewBox="0 0 2000 1000" version="1.1" xmlns="http://www.w3.org/2000/svg" xmlns:xlink="http://www.w3.org/1999/xlink">
    <title>icon_entertainment_ice-portal</title>
    <g id="icon_entertainment_ice-portal" stroke="none" stroke-width="1" fill="none" fill-rule="evenodd">
        <rect id="Rectangle" x="0" y="0" width="2000" height="1000"></rect>
        <g id="Entertainment/ICE-Portal" transform="translate(600, 100)">
            <g id="🎨-Icon-Style" transform="translate(37.5, 125)">
                <path d="M618.578975,225 C657.145114,225 679.475305,238.430096 696.730874,261.25 C712.73181,282.410695 722.079501,307.744848 723.663367,334.080593 L724.891397,379.567738 C725.608991,408.031842 722.76804,436.464425 716.440746,464.216797 L707.030383,501.765189 C704.150025,511.178401 701.806563,517.78981 699.999997,521.599418 C697.290149,527.31383 689.022,539.376108 685.998763,542.968636 C682.975525,546.561165 674.37543,555.361817 662.110122,559.443744 C662.36824,560.412222 662.5,561.440724 662.5,562.5 C662.5,568.910448 657.405087,575 650,575 L550,575 C543.096441,575 537.5,569.403559 537.5,562.5 C537.5,561.36767 537.650561,560.270506 537.932755,559.227434 C527.93763,555.677276 519.082251,549.271023 512.564354,540.671083 C506.046458,532.071143 503.516565,528.129492 500.098806,521.599418 C497.820301,517.246035 495.244353,509.890391 492.370964,499.532485 L485.385042,472.047332 C478.421686,444.579819 474.935958,416.369036 475,388.066578 L476.15166,338.739098 C476.854849,310.740776 486.336865,283.655607 503.279157,261.25 C519.918455,239.245092 543.23941,225 582.23974,225 L618.578975,225 Z M683.118805,494.270013 C666.14152,504.976741 656.107999,511.128945 653.018241,512.726623 C648.383604,515.123141 643.369575,516.596152 636.313433,517.488768 C623.532858,518.317874 611.426722,518.750937 599.995025,518.787956 C588.563329,518.824976 577.118458,518.468179 565.660414,517.717565 C556.866691,516.783747 551.134874,515.082878 545.723954,512.048955 C542.669402,510.336257 536.638406,506.531758 530.395219,502.617009 L529.323395,501.945198 L527.911979,501.061682 C523.917017,498.563303 519.984794,496.126994 516.836882,494.270013 C517.923202,499.565278 519.608212,504.4098 521.891912,508.803581 C524.175612,513.197362 527.387002,518.3377 531.526083,524.224594 C536.67721,531.867512 546.937193,537.5 554.691611,537.4121 L644.067081,537.5 C653.257431,537.5 662.77464,533.462168 668.625684,524.42821 C674.476727,515.394252 677.517098,510.772381 679.814337,505.14997 C681.34583,501.401696 682.447319,497.775044 683.118805,494.270013 Z M582.23974,250 C553.634412,250 537.00922,258.092778 523.220012,276.328538 C510.290574,293.427281 502.703465,313.86007 501.334421,335.10724 L500.098806,380.97363 C499.445661,406.979391 501.806629,433.874275 508.374133,460.725 C518.065886,466.095981 526.459177,470.894877 533.554005,475.121689 C540.451755,479.231089 544.533095,481.822591 548.566985,484.335664 L549.258561,484.765977 C551.219637,485.984542 553.206847,487.204009 555.537483,488.589326 C562.859328,492.94139 576.764707,493.752094 599.460731,493.769386 L600.220523,493.769673 C603.667799,493.769673 606.869724,493.782186 609.854182,493.784507 L611.74308,493.784372 C627.652042,493.767379 637.163391,493.294897 644.916422,488.589326 C654.38116,482.844864 658.799135,479.793968 666.656276,475.121689 C674.895993,470.22191 683.374896,465.293489 691.518427,460.872223 C697.184537,439.152942 700.011799,414.8775 700.000213,388.045895 L698.869994,339.367891 C698.295999,316.599813 690.581784,294.567679 676.790019,276.328538 C663.437722,258.670577 648.909676,250.044844 618.578975,250.044844 L582.23974,250 Z M400,462.496531 C406.903559,462.496531 412.5,468.092971 412.5,474.996531 C412.5,481.90009 406.903559,487.496531 400,487.496531 L87.5,487.496531 C80.5964406,487.496531 75,481.90009 75,474.996531 C75,468.092971 80.5964406,462.496531 87.5,462.496531 L400,462.496531 Z M557.426929,419.26013 L569.184831,455.454065 C571.30327,462.024556 567.694168,469.068325 561.123677,471.186764 C555.022507,473.153885 548.513256,470.182464 545.91835,464.487237 L534.160448,428.293302 C532.04201,421.722811 535.651111,414.679042 542.221602,412.560603 C548.322772,410.593482 554.832024,413.564903 557.426929,419.26013 Z M656.377556,412.889066 C662.478726,414.856188 666.026454,421.07015 664.806003,427.208526 L652.78671,464.487237 C650.191805,470.182464 643.682553,473.153885 637.581383,471.186764 C631.480213,469.219642 627.932485,463.00568 629.152936,456.867304 L641.172229,419.588593 C643.767134,413.893366 650.276386,410.921945 656.377556,412.889066 Z M184.482759,412.5 C191.386318,412.5 196.982759,418.096441 196.982759,425 C196.982759,431.903559 191.386318,437.5 184.482759,437.5 L87.5,437.5 C80.5964406,437.5 75,431.903559 75,425 C75,418.096441 80.5964406,412.5 87.5,412.5 L184.482759,412.5 Z M324.568966,412.5 C331.472525,412.5 337.068966,418.096441 337.068966,425 C337.068966,431.903559 331.472525,437.5 324.568966,437.5 L227.586207,437.5 C220.682648,437.5 215.086207,431.903559 215.086207,425 C215.086207,418.096441 220.682648,412.5 227.586207,412.5 L324.568966,412.5 Z M600.001,275 C626.313247,275 646.134715,280.408862 659.465404,291.226586 C672.796094,302.04431 675.108883,313.18335 673.74976,325.141864 C673.600128,326.45843 673.455032,327.733702 673.306606,328.993322 L673.194539,329.935502 C672.328686,337.142526 671.287694,344.043965 668.576038,355.514371 C665.274891,369.478344 653.193359,380.489454 638.709488,383.007221 C625.808624,386.002407 612.905462,387.5 600,387.5 C580.641808,387.5 576.648962,386.038485 561.283656,383.006008 C545.91835,379.973532 534.634301,369.263406 531.19913,354.630384 C528.683002,343.003532 526.967621,333.280548 526.052987,325.461433 C524.681037,313.732761 528.913743,302.042969 537.476732,293.911595 C550.753685,281.303865 571.595107,275 600.001,275 Z M600.001,300 C577.443054,300 562.663244,304.470421 554.691611,312.040245 C552.245036,314.363501 550.858942,317.558208 550.780975,320.723111 C550.728997,322.833046 552.3145,332.230957 555.537483,348.916842 C556.568043,353.306786 559.868104,356.761185 564.051442,358.022617 C579.560227,360.965386 591.505018,362.457847 599.885818,362.5 C608.266617,362.542153 619.78064,361.167684 634.427885,358.376592 C638.719398,357.630588 642.271601,354.716751 643.822183,350.958222 C644.792744,348.605636 646.1632,341.306267 647.289488,334.090926 L647.441499,333.108009 C647.892628,330.163656 648.297995,327.271635 648.613506,324.776374 L648.720115,323.920436 C648.788652,323.361322 648.852025,322.825958 648.909676,322.318709 C649.306084,318.830827 649.158528,315.353471 643.7124,310.639026 C636.313433,304.234106 621.059694,300 600.001,300 Z M475,75 C495.710678,75 512.5,91.7893219 512.5,112.5 L512.5,199.319539 C512.5,206.223099 506.903559,211.819539 500,211.819539 C493.096441,211.819539 487.5,206.223099 487.5,199.319539 L487.5,112.5 C487.5,105.596441 481.903559,100 475,100 L200,100 C193.096441,100 187.5,105.596441 187.5,112.5 L187.5,312.5 C187.5,319.403559 193.096441,325 200,325 L426.355803,325 C433.259363,325 438.855803,330.596441 438.855803,337.5 C438.855803,344.403559 433.259363,350 426.355803,350 L200,350 C179.289322,350 162.5,333.210678 162.5,312.5 L162.5,112.5 C162.5,91.7893219 179.289322,75 200,75 L475,75 Z M319.124987,164.420008 L379.124987,201.920008 C386.958338,206.815852 386.958338,218.224121 379.124987,223.119966 L319.124987,260.619966 C310.799387,265.823466 300,259.837931 300,250.019987 L300,175.019987 C300,165.202043 310.799387,159.216508 319.124987,164.420008 Z M325,197.557487 L325,227.469987 L348.925,212.507487 L325,197.557487 Z" id="Base" fill="#282D37" fill-rule="nonzero"></path>
                <path d="M612.5,0 C647.017797,0 675,27.9822031 675,62.5 L675,186.819539 C675,193.723099 669.403559,199.319539 662.5,199.319539 C655.596441,199.319539 650,193.723099 650,186.819539 L650,62.5 C650,41.7893219 633.210678,25 612.5,25 L62.5,25 C41.7893219,25 25,41.7893219 25,62.5 L25,487.5 C25,508.210678 41.7893219,525 62.5,525 L451.989027,525 C458.892587,525 464.489027,530.596441 464.489027,537.5 C464.489027,544.403559 458.892587,550 451.989027,550 L62.5,550 C27.9822031,550 0,522.017797 0,487.5 L0,62.5 C0,27.9822031 27.9822031,0 62.5,0 L612.5,0 Z" id="Pulse" fill="#EC0016"></path>
            </g>
        </g>
    </g>
</svg>