<?xml version="1.0" encoding="UTF-8"?>
<svg width="2000px" height="1000px" viewBox="0 0 2000 1000" version="1.1" xmlns="http://www.w3.org/2000/svg" xmlns:xlink="http://www.w3.org/1999/xlink">
    <title>icon_communication_wifi-ICE</title>
    <g id="icon_communication_wifi-ICE" stroke="none" stroke-width="1" fill="none" fill-rule="evenodd">
        <rect id="Rectangle" x="0" y="0" width="2000" height="1000"></rect>
        <g id="Communication/Wifi-ICE" transform="translate(600, 100)">
            <g id="🎨-Icon-Style" transform="translate(137.5, 37.5)">
                <path d="M262.476094,0 C305.291539,0 340.628271,4.93054517 371.5862,14.9170118 C378.156375,17.036431 381.764425,24.0807386 379.645006,30.6509132 C377.525587,37.2210878 370.481279,40.8291379 363.911105,38.7097187 C335.586475,29.5727069 302.814334,25 262.476094,25 C188.438088,25 140.397567,39.7825743 94.4566097,72.7514794 C50.8162716,104.069376 25,160.773735 25,237.504713 C25,272.690904 26.1723914,308.061385 28.295202,347.743295 C28.923114,359.480915 30.9640352,393.973111 31.2344042,399.380493 C32.3684377,422.061162 34.921003,444.062727 38.7037614,464.97054 C40.0201048,465.943109 41.1631796,467.194075 42.0412763,468.696119 C60.4660149,500.21288 102.822997,536.518865 169.002528,576.829174 C184.871828,586.49525 221.732645,593.754713 262.5,593.754713 C303.270549,593.754713 340.11925,586.498054 355.998762,576.828388 C422.191036,536.521282 464.546789,500.216351 482.956511,468.699905 C483.840749,467.186137 484.994097,465.927183 486.320475,464.948266 C490.091926,444.056193 492.634645,422.062719 493.765509,399.382228 C493.897946,396.726079 494.470576,386.788489 495.090496,376.008086 L495.150623,374.962407 L495.210966,373.912762 L495.286292,372.602074 C495.298856,372.38342 495.311422,372.164699 495.323987,371.945961 L495.399346,370.633761 C495.92644,361.452869 496.44107,352.427958 496.707371,347.424211 C497.133836,339.41101 497.517819,331.665364 497.86567,323.968965 C498.177369,317.072446 504.020784,311.734395 510.917303,312.046094 C517.813822,312.357793 523.151874,318.201208 522.840175,325.097727 C522.489163,332.864058 522.101905,340.675765 521.672041,348.752838 C521.642951,349.29942 521.610973,349.892753 521.576403,350.527945 L521.340281,354.802279 C521.077843,359.500665 520.743617,365.353819 520.402066,371.305233 L520.06046,377.25027 C519.438462,388.066076 518.864065,398.028464 518.734491,400.627198 C513.331453,508.98994 477.566451,603.840448 424.757151,646.230718 L418.519506,680.372946 C414.413894,702.753426 395.718127,719.542206 373.025136,721.222928 C338.570987,723.76941 301.730314,725.041503 262.5,725.041503 C223.269546,725.041503 186.439034,723.769401 152.007149,721.223023 C129.309979,719.547843 110.608159,702.755731 106.508803,680.372919 L100.256169,646.297903 C47.4913098,603.904083 11.6776873,508.870765 6.26559576,400.628933 C6.12654891,397.847996 5.49292757,386.936167 4.8324483,375.510544 L4.7422604,373.950035 C4.73223079,373.77645 4.72219989,373.602827 4.71216933,373.429192 L4.63697198,372.127117 C4.11099122,363.01682 3.59716243,354.056089 3.33089776,349.078777 C1.18624838,308.988634 0,273.200093 0,237.504713 C0,153.112028 29.3114446,88.7306688 79.8806258,52.4403816 C130.164032,16.3551771 183.315209,0 262.476094,0 Z M396.250183,663.175089 C390.01318,665.672021 383.60685,667.49112 377.047543,668.584567 C361.460934,671.18288 332.000087,675.004713 262.476094,675.004713 C192.9521,675.004713 158.034945,670.284534 147.802678,668.585965 C141.307956,667.507833 134.962426,665.712156 128.782212,663.24621 L131.09913,675.865617 C133.14896,687.057846 142.49918,695.453283 153.849126,696.290973 C187.648261,698.790557 223.86627,700.041503 262.5,700.041503 C301.13387,700.041503 337.362386,698.790548 371.180518,696.291074 C382.527004,695.450713 391.876568,687.054814 393.928035,675.871896 L396.250183,663.175089 Z M472.370529,521.330889 L471.333212,522.345366 C446.842711,546.333029 412.741181,571.546048 369.001238,598.181037 C348.490509,610.670836 307.44126,618.754713 262.5,618.754713 C217.561028,618.754713 176.499025,610.667858 155.997472,598.180252 C111.683767,571.188535 77.2615223,545.658129 52.7021969,521.384805 C74.6437213,589.35282 110.848113,637.109347 151.896685,643.923461 C165.753243,647.805794 212.218091,650.319844 262.476094,650.213826 C333.789608,650.790414 358.146473,646.343157 372.936729,643.924859 C414.176371,637.181921 450.436183,589.416011 472.370529,521.330889 Z M151.857108,382.891366 L184.334815,392.319773 C192.468969,394.68115 198.844264,400.996489 201.292402,409.084322 L201.415516,409.504228 L220.01021,475.036394 C223.779179,488.319142 216.066736,502.14229 202.783987,505.911258 C201.303954,506.331216 193.771917,506.647702 180.187877,506.860714 C164.288523,506.860714 150.117364,496.834406 144.82574,481.841469 L121.312507,415.220644 C116.71722,402.200664 123.546783,387.920669 136.566763,383.325382 C141.493011,381.586706 146.840166,381.434927 151.857108,382.891366 Z M388.486932,383.31916 C401.506912,387.914447 408.336474,402.194441 403.741188,415.214421 L380.225759,481.841469 C374.934134,496.834406 360.762975,506.860714 344.863621,506.860714 C331.279378,506.648537 323.74858,506.333281 322.271225,505.914947 C308.98644,502.153166 301.266519,488.334193 305.0283,475.049407 L323.584549,409.517742 L323.707535,409.097441 C326.153317,401.001993 332.533165,394.680176 340.674231,392.318738 L373.201879,382.883607 C378.217335,381.428799 383.562458,381.58111 388.486932,383.31916 Z M144.887265,406.900141 L168.400498,473.520966 C170.164373,478.518612 174.888092,481.860714 180.187877,481.860714 L195.959667,481.860714 L177.364973,416.328548 L144.887265,406.900141 Z M380.166429,406.893918 L347.638781,416.329049 L329.082533,481.860714 L344.863621,481.860714 C350.163406,481.860714 354.887126,478.518612 356.651001,473.520966 L380.166429,406.893918 Z M262.502667,50.0047128 C281.758846,50.0047128 299.774685,50.9553104 316.554226,52.8621878 C323.413633,53.6417115 328.342353,59.834289 327.562829,66.6936968 C326.783306,73.5531045 320.590728,78.4818244 313.73132,77.7023007 C297.923063,75.9058027 280.845498,75.0047128 262.502667,75.0047128 C212.107806,75.0047128 171.351169,81.8072277 140.268056,95.2118704 C97.8599767,113.498798 73.4902159,158.44833 81.3058518,203.966983 C83.2052463,215.03404 85.4385055,226.063406 88.0057486,237.05539 C90.7447914,248.782957 93.885194,260.558652 97.4258033,272.377672 C105.054239,297.803926 126.635066,316.570588 152.868054,320.593586 L190.695201,326.378419 C238.28844,333.656761 286.711642,333.656882 334.304917,326.378776 L372.292417,320.569615 C380.958848,319.244633 389.15128,316.634659 396.327836,312.886036 C402.446911,309.689781 409.998479,312.059194 413.194734,318.17827 C416.39099,324.297345 414.021576,331.848913 407.902501,335.045168 C398.221878,340.101773 387.394488,343.551201 376.07112,345.282393 L338.084058,351.091487 C287.985874,358.752651 237.014082,358.752524 186.915936,351.091111 L149.083618,345.305486 C113.307124,339.818932 83.8816772,314.230598 73.4787986,279.556874 C69.7901997,267.243849 66.5174597,254.971923 63.6609181,242.74127 C60.9810905,231.267241 58.6494467,219.751984 56.6662618,208.196711 C46.8970321,151.300231 77.3589496,95.1138385 130.36849,72.2554205 C164.922754,57.3538386 208.954359,50.0047128 262.502667,50.0047128 Z" id="Base" fill="#282D37" fill-rule="nonzero"></path>
                <path d="M316.666667,141.177673 C316.666667,148.708943 324.540299,155.555576 330.35994,155.555576 C334.467917,155.555576 339.346543,154.528586 342.98794,149.366607 C370.498741,110.367829 415.600573,87.7739049 462.500033,87.7739049 C514.192174,87.7739049 555.19573,110.71004 582.008124,149.369811 C584.636301,153.159257 589.162805,155.555576 593.955472,155.555576 C602.513747,155.555576 608.333333,149.051268 608.333333,140.835319 C608.333333,137.754278 607.306414,134.851391 605.543378,132.312647 C573.187388,85.7199248 519.327053,58.3333333 462.500033,58.3333333 C405.672941,58.3333333 352.611512,85.7199248 319.405321,132.277045 C317.693662,134.673379 316.666667,138.096631 316.666667,141.177673 Z M352.953838,181.23047 C352.953838,187.050114 358.773481,194.923738 368.358774,194.923738 C372.466763,194.923738 376.915083,192.30617 379.655722,188.419429 C398.483982,161.717545 428.951515,144.943279 461.473043,144.943279 C494.6951,144.943279 525.230804,161.720151 543.938215,188.445163 C546.795816,192.527418 551.163959,194.923738 555.614273,194.923738 C562.118567,194.923738 570.33463,189.788759 570.33463,180.545806 C570.33463,177.122482 569.307569,174.213557 567.542681,171.682304 C543.411156,137.072561 503.933239,115.845062 461.473043,115.845062 C419.707152,115.845062 380.219609,137.072561 356.088083,171.682304 C354.323167,174.213557 352.953838,178.149486 352.953838,181.23047 Z M391.295009,218.544637 C391.295009,226.7606 397.456978,233.264909 405.672941,233.264909 C410.80792,233.264909 415.600573,230.52625 417.996893,226.7606 C427.582186,211.698004 444.014112,202.797376 461.473043,202.797376 C479.274227,202.797376 495.647538,211.698004 505.319174,226.742799 C507.971419,230.868589 512.480548,233.264909 517.615427,233.264909 C526.173701,233.264909 531.99343,225.73361 531.99343,218.544637 C531.99343,215.805978 530.966369,212.975108 529.226403,210.347415 C514.253268,187.734764 488.859563,173.699172 461.473043,173.699172 C434.428819,173.699172 408.778576,187.734764 394.022147,210.321155 C391.979674,213.447383 391.295009,215.805978 391.295009,218.544637 Z M433.333333,262.327419 C433.333333,278.553968 447.058843,291.666667 462.500036,291.666667 C478.627462,291.666667 491.666667,278.550296 491.666667,262.327419 C491.666667,246.449711 478.284302,233.333333 461.813759,233.333333 C446.372567,233.333333 433.333333,246.449711 433.333333,262.327419 Z" id="Pulse" fill="#EC0016"></path>
            </g>
        </g>
    </g>
</svg>