<?xml version="1.0" encoding="UTF-8"?>
<svg width="2000px" height="1000px" viewBox="0 0 2000 1000" version="1.1" xmlns="http://www.w3.org/2000/svg" xmlns:xlink="http://www.w3.org/1999/xlink">
    <title>icon_travel_1st-class</title>
    <g id="icon_travel_1st-class" stroke="none" stroke-width="1" fill="none" fill-rule="evenodd">
        <rect id="Rectangle" x="0" y="0" width="2000" height="1000"></rect>
        <g id="Travel/1st-Class" transform="translate(600, 100)">
            <g id="🎨-Icon-Style" transform="translate(50, 62.5)">
                <path d="M318.691066,462.494119 L325.856919,462.494996 C326.35931,462.495065 326.866635,462.495135 327.378894,462.495208 L332.12243,462.495918 C332.664291,462.496003 333.211084,462.49609 333.762812,462.496179 L337.132381,462.496738 C337.703843,462.496836 338.280238,462.496935 338.861568,462.497036 L342.408746,462.497669 C343.00981,462.497778 343.615807,462.49789 344.226738,462.498004 L347.951526,462.49871 C348.582191,462.498831 349.21779,462.498955 349.858322,462.499081 L353.76072,462.499861 C357.062055,462.500531 360.486729,462.501252 364.034744,462.502024 L368.351564,462.502975 C388.043672,462.507364 411.332377,462.513242 438.217679,462.520607 C464.940456,464.056947 488.266256,480.891259 498.376319,506.000176 L549.447399,671.323751 C551.477736,677.921998 547.774713,684.916847 541.176465,686.947183 C534.64493,688.582231 528.145024,686.159599 525.553033,678.676249 C525.467177,678.428375 508.855517,624.430425 475.718053,516.6824 C470.07766,500.796494 456.439025,489.123724 437.500216,487.5 C437.07152,487.492933 433.865711,487.487562 427.88279,487.483888 L426.329203,487.483004 C425.523481,487.48258 424.674367,487.482183 423.78186,487.481812 L421.938991,487.481105 C421.622203,487.480993 421.300594,487.480884 420.974163,487.480778 L418.957724,487.480178 C418.612008,487.480083 418.261471,487.479992 417.906112,487.479904 L414.577707,487.479188 C414.19342,487.479118 413.804312,487.47905 413.410382,487.478985 L404.429116,487.478057 C403.967687,487.478034 403.501436,487.478013 403.030364,487.477996 L394.030364,487.477996 C393.501436,487.478013 392.967687,487.478034 392.429116,487.478057 L380.410382,487.478985 C379.804312,487.47905 379.19342,487.479118 378.577707,487.479188 L372.906112,487.479904 C372.261471,487.479992 371.612008,487.480083 370.957724,487.480178 L366.974163,487.480778 C366.300594,487.480884 365.622203,487.480993 364.938991,487.481105 L360.78186,487.481812 C358.674367,487.482183 356.523481,487.48258 354.329203,487.483004 L349.88279,487.483888 C331.865711,487.487562 311.07152,487.492933 287.500216,487.5 C280.596657,487.5 275.000216,482.164682 275.000216,475 C275.000216,467.835318 280.972475,462.5 287.500216,462.5 C287.52731,462.499594 287.598805,462.499206 287.714704,462.498836 L288.005704,462.498122 C288.064071,462.498007 288.127372,462.497894 288.195606,462.497783 L288.664216,462.497142 C288.752185,462.497039 288.845087,462.496939 288.942923,462.49684 L289.956655,462.496007 C290.084092,462.49592 290.216464,462.495836 290.353768,462.495754 L291.722719,462.495068 C291.889626,462.494998 292.061466,462.49493 292.23824,462.494864 L295.259865,462.494026 C295.485975,462.493981 295.717018,462.493937 295.952995,462.493896 L317.3467,462.49398 C317.789888,462.494024 318.23801,462.49407 318.691066,462.494119 Z M65.6604666,58.0355636 C79.1211719,71.1693891 86.9129913,88.9874559 87.4791225,107.503321 L87.5001667,212.464875 C87.4861372,233.139789 90.365725,255.093066 96.13893,278.324706 L168.088706,538.803938 C175.37357,558.620748 194.064789,562.61074 200.000216,562.5 L362.500216,562.5 C369.403775,562.5 375.000216,568.069503 375.000216,575 C375.000216,581.930497 369.211987,587.493148 362.500216,587.493148 C362.310268,587.491218 361.483812,587.4895 360.020849,587.487995 L359.159745,587.487195 C359.005707,587.487065 358.846408,587.486937 358.681849,587.486811 L357.63137,587.486074 C357.44577,587.485955 357.254909,587.485837 357.058788,587.485721 L355.818935,587.485047 C355.601772,587.484939 355.379349,587.484832 355.151665,587.484726 L353.722439,587.484116 C353.473714,587.484017 353.219728,587.483921 352.960482,587.483826 L350.485238,587.483021 C350.194429,587.482937 349.89836,587.482854 349.597031,587.482774 L346.743039,587.482095 C346.410147,587.482024 346.071995,587.481956 345.728583,587.481889 L340.18287,587.481021 C339.786854,587.480972 339.385578,587.480924 338.979041,587.480879 L323.653801,587.48001 C323.131535,587.480003 322.604009,587.479998 322.071223,587.479994 L318.811381,587.479994 C318.257553,587.479998 317.698464,587.480003 317.134116,587.48001 L296.601089,587.480879 C295.921012,587.480924 295.235674,587.480972 294.545076,587.481021 L283.791577,587.481889 C283.048375,587.481956 282.299913,587.482024 281.54619,587.482095 L274.620655,587.482774 C273.83537,587.482854 273.044825,587.482937 272.249019,587.483021 L264.944736,587.483826 C264.117368,587.483921 263.28474,587.484017 262.446851,587.484116 L257.356392,587.484726 C256.497462,587.484832 255.633271,587.484939 254.76382,587.485047 L249.483987,587.485721 C248.593495,587.485837 247.697741,587.485955 246.796728,587.486074 L241.327521,587.486811 C240.405466,587.486937 239.478151,587.487065 238.545575,587.487195 L232.886994,587.487995 C222.397202,587.4895 211.270902,587.491218 199.508094,587.493148 C175.646948,586.550173 154.623906,571.781907 145.307737,549.043048 L144.285252,546.384294 L72.0062028,284.850992 C66.1591962,263.429958 62.9905339,239.31296 62.500216,212.5 L62.5023212,110.752848 C62.7424729,97.6693375 57.5674166,85.0677379 48.2013963,75.929162 C38.835376,66.7905861 26.1103868,61.9268251 13.0367321,62.4884807 C6.13953462,62.7847903 0.308044937,57.4337135 0.011735309,50.536516 C-0.284574319,43.6393186 5.06650253,37.8078289 11.9637,37.5115193 C31.9272914,36.653866 51.3584672,44.0808739 65.6604666,58.0355636 Z M245.88879,266.232816 L280.421713,392.556235 C280.959774,396.167179 283.65372,399.020934 286.450579,399.80539 L412.379257,399.936295 C419.282817,399.936295 424.992352,405.596441 424.992352,412.5 C424.992352,419.55471 419.21313,425.013542 412.367846,424.936295 C411.760661,424.990955 402.174054,425.021922 383.608024,425.029194 L381.189113,425.029993 C380.777831,425.030105 380.362485,425.030206 379.943073,425.030297 L367.631186,425.03013 C347.4354,425.025919 320.406472,425.003676 286.544402,424.963403 C271.534877,423.812328 259.188765,412.900353 256.075894,398.344326 L222.850443,275.964165 C220.632578,268.91613 216.935571,263.713196 212.819888,259.550476 C209.203671,255.892932 202.986149,251.854653 196.088244,250.135231 C189.943911,248.475711 183.8268,248.329547 177.736912,249.696741 C171.000838,251.208177 164.31491,246.97277 162.803475,240.236696 C161.292039,233.500621 165.527446,226.814694 172.26352,225.303259 C203.646104,218.261658 235.15116,235.863036 245.88879,266.232816 Z M643.75,0 C661.008898,0 675,13.9911016 675,31.25 L675,218.75 C675,236.008898 661.008898,250 643.75,250 L456.25,250 C438.991102,250 425,236.008898 425,218.75 L425,31.25 C425,13.9911016 438.991102,0 456.25,0 L643.75,0 Z M456.25,25 C453.181751,25 450.002042,27.4242862 450,31.25 C449.966635,93.7485077 449.966635,156.248508 450,218.75 C450,221.818249 452.556555,224.998028 456.25,225 C518.748508,225.033365 581.248508,225.033365 643.75,225 C646.818249,225 649.998003,222.491285 650,218.75 C650.033365,156.251493 650.033365,93.7514926 650,31.25 C650,28.1817514 647.589277,25.0020496 643.75,25 C581.251493,24.9666354 518.751493,24.9666354 456.25,25 Z M193.750216,50 C231.719793,50 262.500216,80.7804235 262.500216,118.75 C262.500216,156.719577 231.719793,187.5 193.750216,187.5 C155.780639,187.5 125.000216,156.719577 125.000216,118.75 C125.000216,80.7804235 155.780639,50 193.750216,50 Z M193.750216,75 C169.587758,75 150.000216,94.5875422 150.000216,118.75 C150.000216,142.912458 169.587758,162.5 193.750216,162.5 C217.912674,162.5 237.500216,142.912458 237.500216,118.75 C237.500216,94.5875422 217.912674,75 193.750216,75 Z" id="Base" fill="#282D37" fill-rule="nonzero"></path>
                <path d="M524.225,92.1125 C522.45,92.975 516.2117,94.8163986 513.166618,89.1235352 C510.914993,83.78582 514.751053,78.6092758 518.0875,77.1375 C536.170833,68.5375 545.816667,64.0083333 547.025,63.55 C548.85,62.85 550.75,62.5 552.7,62.5 C555.5875,62.5 557.8625,63.4625 559.5125,65.4 C561.1625,67.3375 561.9875,69.625 561.9875,72.275 L561.9875,177.375 L575.575,177.375 C577.6375,177.375 582.925,179.117382 582.925,184.725 C582.925,190.533786 577.6375,192.0625 575.575,192.0625 L521.1875,192.0625 C519.125,192.0625 513.85,190.536226 513.85,184.725 C513.85,178.913774 519.125,177.375 521.1875,177.375 L536.4125,177.2875 C536.4125,147.5375 536.425,87.275 536.4375,86.9 C533.725,88.0625 529.65,89.8 524.225,92.1125 Z" id="Pulse" fill="#EC0016"></path>
            </g>
        </g>
    </g>
</svg>