<?xml version="1.0" encoding="UTF-8"?>
<svg width="2000px" height="1000px" viewBox="0 0 2000 1000" version="1.1" xmlns="http://www.w3.org/2000/svg" xmlns:xlink="http://www.w3.org/1999/xlink">
    <title>icon_feature_mobile-payment</title>
    <g id="icon_feature_mobile-payment" stroke="none" stroke-width="1" fill="none" fill-rule="evenodd">
        <rect id="Rectangle" x="0" y="0" width="2000" height="1000"></rect>
        <g id="Feature/Mobile-Payment" transform="translate(600.000000, 100.000000)">
            <g id="🎨-Icon-Style" transform="translate(49.984259, 49.984259)">
                <path d="M481.067044,2.92715864 C541.513382,19.1029143 601.957229,35.2987945 662.398587,51.5147992 C688.204579,58.4294939 704.994383,85.2742225 697.673236,112.612283 C659.927468,253.55959 622.163334,394.497256 584.380834,535.425282 C577.466139,561.231274 551.535044,576.863623 525.704122,571.285369 L512.503241,567.802457 L512.515741,637.513243 C512.515741,660.680814 507.707301,679.356359 498.002363,694.316239 C494.245172,700.107841 486.504346,701.757056 480.712745,697.999865 C474.921143,694.242674 473.271928,686.501848 477.029119,680.710247 C483.426569,670.848762 487.502244,657.242217 487.515741,637.513243 C487.533163,612.047399 487.533163,586.581304 487.515741,561.114957 L425.015741,544.377457 L425.015741,587.513243 C425.015741,618.412876 412.209202,641.537799 391.057486,657.242217 C376.600742,667.501368 363.664651,673.357992 352.249212,674.812089 C345.456747,676.0456 338.950407,671.539178 337.716895,664.746713 C336.571492,658.439424 340.375317,652.378846 346.362992,650.55761 C355.808091,648.468286 365.074128,644.481529 374.161102,638.597339 C389.838477,628.445593 399.989441,611.876879 400.015741,587.513243 C400.03823,566.680385 400.03823,545.847051 400.015741,525.013243 C400.015741,522.250571 401.138698,518.471047 403.676906,516.174408 C428.653648,491.14734 453.647588,466.153413 478.658726,441.192626 C491.976413,427.819983 491.976413,409.706503 478.673877,396.349047 C465.887555,383.553955 447.914809,382.564609 433.854576,396.352078 C395.947028,434.140295 358.048705,471.948073 320.159608,509.775411 C308.149681,498.128099 301.666524,479.70944 306.677159,461.014807 C317.688657,419.822063 328.718185,378.638779 339.765741,337.464957 L258.864535,408.842107 C247.110571,418.995128 237.515741,441.192626 237.515741,462.513243 C237.490406,537.512691 237.490406,612.512691 237.515741,687.513243 C237.515741,694.416802 231.919301,700.014717 225.015741,700.014717 C218.605293,700.014717 212.518547,695.069753 212.515741,687.513243 C212.48789,612.514895 212.48789,537.514895 212.515741,462.513243 C212.515741,436.607384 223.494646,405.832337 241.745471,390.64027 C296.540367,342.046993 351.427657,293.951822 351.478673,293.761467 C361.647994,255.816736 384.47829,170.630183 419.96956,38.2018071 C426.884255,12.395815 453.820593,-4.36413397 481.067044,2.92715864 Z M510.929012,36.8105533 L509.311393,42.8475897 C508.599576,45.504127 509.835112,48.3466549 512.281928,49.8929734 L513.254826,50.4091881 L514.332654,50.7865136 L609.660046,76.3294111 C611.499563,76.8223082 613.432348,76.5871112 615.011212,75.7048037 C616.207788,75.0361279 617.121138,74.0419338 617.652599,72.8724063 L617.978048,71.9647323 L619.595667,65.9276959 L510.929012,36.8105533 Z M444.117706,44.6722833 C406.751338,184.019085 369.40485,323.379143 332.078241,462.752457 L416.170846,378.680473 C439.265778,355.553839 473.249854,355.553839 496.372757,378.692626 C518.68531,401.097253 519.382577,433.599102 498.44803,456.651369 L475.065741,480.127457 L506.362335,488.520245 C513.030661,490.307017 516.987942,497.161229 515.20117,503.829556 C513.542024,510.021573 506.362335,514.786193 499.891859,512.668391 C484.809507,508.653032 469.729968,504.610221 454.653241,500.539957 L434.240741,520.952457 L529.753826,546.551785 C542.426159,549.947326 556.01161,543.149236 560.232688,528.954806 C598.016721,388.030408 635.780855,247.092742 673.52509,106.141806 C676.920631,93.4694741 670.063617,79.6032871 655.928111,75.6629448 C651.869147,74.5548027 647.807714,73.4665451 643.743813,72.398172 L642.126194,78.4352084 C637.758208,94.736754 620.721582,105.15728 603.18957,100.477557 C571.410394,91.9949167 539.634597,83.4806175 507.862178,74.9346593 C491.594345,70.5757064 480.621597,53.9001514 485.163247,36.3771136 C485.687117,34.3558687 486.226323,32.3435232 486.780866,30.3400772 L474.596568,27.0753043 C461.924235,23.6797631 447.960941,30.3400772 444.117706,44.6722833 Z M536.650258,224.962935 L538.080116,225.259001 L565.24678,232.538287 C571.915106,234.32506 575.872387,241.179272 574.085614,247.847598 C572.426468,254.039615 566.397949,257.894047 560.206161,256.982499 L558.776303,256.686433 L531.60964,249.407147 C524.941313,247.620374 520.984032,240.766162 522.770805,234.097836 C524.429951,227.905819 530.458471,224.051386 536.650258,224.962935 Z M454.428485,151.080805 L502.724777,164.021758 C509.393103,165.80853 513.350384,172.662742 511.563611,179.331069 L498.622659,227.62736 C496.835886,234.295686 489.981675,238.252967 483.313348,236.466195 L435.017057,223.525242 C428.348731,221.73847 424.39145,214.884258 426.178222,208.215932 L439.119174,159.91964 C440.905947,153.251314 447.760159,149.294033 454.428485,151.080805 Z M457.380432,173.871396 L448.968813,205.263985 L480.361402,213.675604 L488.773021,182.283015 L457.380432,173.871396 Z M237.515741,0.0157411733 C257.486752,0.0157411733 275.015741,16.058493 275.015741,37.5157412 L275.015741,63.3192008 C275.015741,70.2227602 269.419301,75.8192008 262.515741,75.8192008 C256.105293,75.8192008 250.015741,70.8643582 250.015741,63.3192008 L250.015741,37.5157412 C250.015741,31.1052932 245.756528,25.0157412 237.515741,25.0157412 L37.5157412,25.0157412 C31.1052932,25.0157412 25.0188458,30.0784856 25.0157412,37.5157412 C24.9879121,104.181606 24.9879121,170.848272 25.0157412,237.515741 C25.0157412,243.926189 29.8888555,250.015741 37.5157412,250.015741 L237.515741,250.015741 C244.419301,250.015741 250.015741,255.612182 250.015741,262.515741 C250.015741,268.926189 244.469934,275.012838 237.515741,275.015741 C170.849877,275.04357 104.18321,275.04357 37.5157412,275.015741 C17.5447301,275.015741 0.0224684753,258.884134 0.0157411733,237.515741 C-0.00524705775,170.849378 -0.00524705775,104.182711 0.0157411733,37.5157412 C0.0157411733,17.5447301 16.1260323,0.0224751861 37.5157412,0.0157411733 C104.182105,-0.00524705776 170.848771,-0.00524705776 237.515741,0.0157411733 Z M546.572692,175.857834 L548.00255,176.1539 L614.40995,193.94771 C621.078277,195.734482 625.035558,202.588694 623.248785,209.257021 C621.589639,215.449038 615.561119,219.30347 609.369332,218.391921 L607.939474,218.095855 L541.532074,200.302046 C534.863747,198.515273 530.906466,191.661061 532.693239,184.992735 C534.352385,178.800718 540.380905,174.946286 546.572692,175.857834 Z M144.019462,75.0157412 C152.86264,75.0157412 160.850149,76.1734091 167.981992,78.488745 C172.732649,80.1112618 177.493059,85.0476493 175.846346,91.4070382 C173.57422,98.9901518 166.097086,100.050563 160.934066,98.6969859 C155.771046,97.3434091 150.753052,96.6666207 145.880085,96.6666207 C138.212065,96.6666207 132.68658,98.273522 129.30363,101.487324 C125.92068,104.701127 123.552615,110.029273 122.199435,117.471763 L153.491722,117.471763 L153.491722,131.680153 L121.86114,131.680153 L121.86114,142.843887 L153.491722,142.843887 L153.491722,157.052277 L122.199435,157.052277 C123.21432,164.945827 125.46962,170.414929 128.965335,173.459584 C132.46105,176.504239 138.212065,178.026567 146.21838,178.026567 C151.302791,178.026567 164.967711,174.91722 166.154775,174.670245 C170.027981,173.864401 174.758429,176.411334 176.374005,180.597779 C179.503305,188.706738 172.366486,192.903132 170.237324,194.095579 C168.108162,195.288025 162.202818,197.337572 157.297541,198.40884 C152.392264,199.480107 147.458795,200.015741 142.497135,200.015741 C131.78446,200.015741 123.016982,198.493414 116.194699,195.448759 C109.372417,192.404104 104.072462,187.752548 100.294835,181.49409 C96.5172071,175.235633 93.8954209,167.088362 92.4294759,157.052277 L81.2657412,157.052277 L81.2657412,142.843887 L91.9220335,142.843887 L91.9220335,131.680153 L81.2657412,131.680153 L81.2657412,117.471763 L92.4294759,117.471763 C94.3464809,107.210148 97.2783709,99.0064944 101.225146,92.8608021 C105.171921,86.7151097 110.584641,82.2045098 117.463305,79.3290023 C124.34197,76.4534949 133.194023,75.0157412 144.019462,75.0157412 Z" id="Base" fill="#282D37" fill-rule="nonzero"></path>
                <path d="M215.823038,171.474351 C215.823038,176.462617 220.811304,183.211437 229.027269,183.211437 C232.548403,183.211437 236.361249,180.967808 238.710367,177.636316 C254.848876,154.748987 280.963905,140.371045 308.8395,140.371045 C337.315548,140.371045 363.48901,154.751221 379.523933,177.658373 C381.973305,181.157449 385.717428,183.211437 389.531983,183.211437 C395.107092,183.211437 402.149432,178.810027 402.149432,170.887496 C402.149432,167.953218 401.269093,165.459854 399.756332,163.290208 C379.072168,133.624714 345.233954,115.429715 308.8395,115.429715 C273.040165,115.429715 239.193699,133.624714 218.509535,163.290208 C216.996749,165.459854 215.823038,168.833507 215.823038,171.474351 Z M248.686899,203.457923 C248.686899,210.500177 253.968587,216.075298 261.010841,216.075298 C265.412251,216.075298 269.52024,213.727876 271.574228,210.500177 C279.790194,197.58938 293.874702,189.96027 308.8395,189.96027 C324.097658,189.96027 338.131924,197.58938 346.421898,210.484919 C348.69525,214.02131 352.560218,216.075298 356.961543,216.075298 C364.297207,216.075298 369.285546,209.6199 369.285546,203.457923 C369.285546,201.1105 368.405208,198.684041 366.913809,196.431732 C354.079693,177.04946 332.31366,165.018952 308.8395,165.018952 C285.658737,165.018952 263.672814,177.04946 251.024446,196.409223 C249.273755,199.088847 248.686899,201.1105 248.686899,203.457923 Z" id="Pulse" fill="#EC0016" transform="translate(308.986235, 165.752507) rotate(-75.000000) translate(-308.986235, -165.752507) "></path>
            </g>
        </g>
    </g>
</svg>