<?xml version="1.0" encoding="UTF-8"?>
<svg width="2000px" height="1000px" viewBox="0 0 2000 1000" version="1.1" xmlns="http://www.w3.org/2000/svg" xmlns:xlink="http://www.w3.org/1999/xlink">
    <title>icon_action_information</title>
    <g id="icon_action_information" stroke="none" stroke-width="1" fill="none" fill-rule="evenodd">
        <rect id="Rectangle" x="0" y="0" width="2000" height="1000"></rect>
        <g id="Action/Information" transform="translate(600.000000, 100.000000)">
            <g id="🎨-Icon-Style" transform="translate(150.000000, 150.000000)">
                <path d="M250,0 C388.071187,0 500,111.928813 500,250 C500,388.071187 388.071187,500 250,500 C111.928813,500 0,388.071187 0,250 C0,111.928813 111.928813,0 250,0 Z M250,25 C125.735931,25 25,125.735931 25,250 C25,374.264069 125.735931,475 250,475 C374.264069,475 475,374.264069 475,250 C475,125.735931 374.264069,25 250,25 Z M262.422159,199.56007 L262.5,200.971628 L262.5,319.484128 C262.5,326.387687 256.903559,331.984128 250,331.984128 C243.589552,331.984128 238.30616,327.158626 237.584097,320.941892 L237.5,319.484128 L237.48875,216.975 L232.845962,218.147967 C232.349931,218.272052 231.847223,218.365467 231.340695,218.427861 L229.8125,218.521628 L212.5,218.521628 C205.596441,218.521628 200,212.925187 200,206.021628 C200,199.61118 204.825502,194.327789 211.042236,193.605725 L212.5,193.521628 L228.27625,193.5125 L246.966538,188.845289 C254.392209,186.987721 261.599891,192.1642 262.422159,199.56007 Z M248.749999,131.875034 C258.496192,131.875527 266.505969,139.290454 267.415009,148.771055 L267.500933,150.571569 C267.501463,161.005617 259.107234,169.375491 248.751904,169.374966 C239.005712,169.374473 230.995935,161.959546 230.086895,152.478945 L230.000971,150.678431 C230.000441,140.244383 238.394669,131.874509 248.749999,131.875034 Z" id="Base" fill="#282D37" fill-rule="nonzero"></path>
                <path d="M298.055,350.013003 C304.958559,350.013003 310.555,355.609444 310.555,362.513003 C310.555,368.923451 305.729498,374.206843 299.512764,374.928906 L298.055,375.013003 L201.90125,375.013003 C194.997691,375.013003 189.40125,369.416562 189.40125,362.513003 C189.40125,356.102555 194.226752,350.819164 200.443486,350.0971 L201.90125,350.013003 L298.055,350.013003 Z" id="Pulse" fill="#EC0016"></path>
            </g>
        </g>
    </g>
</svg>